<?xml version="1.0" standalone="no"?>
<!DOCTYPE svg PUBLIC "-//W3C//DTD SVG 20010904//EN"
 "http://www.w3.org/TR/2001/REC-SVG-20010904/DTD/svg10.dtd">
<svg version="1.0" xmlns="http://www.w3.org/2000/svg"
 width="1280.000000pt" height="640.000000pt" viewBox="0 0 1280.000000 640.000000"
 preserveAspectRatio="xMidYMid meet">
<metadata>
Created by potrace 1.15, written by Peter Selinger 2001-2017
</metadata>
<g transform="translate(0.000000,640.000000) scale(0.100000,-0.100000)"
fill="#000000" stroke="none">
<path d="M5065 6053 c-16 -2 -64 -13 -105 -23 -55 -14 -127 -20 -275 -24 -192
-5 -364 -23 -470 -47 -115 -26 -205 -92 -220 -159 -5 -24 -12 -27 -83 -39 -42
-7 -114 -26 -159 -41 -99 -34 -243 -93 -242 -100 0 -3 28 -23 62 -45 76 -49
80 -67 34 -129 -20 -25 -38 -63 -42 -85 -16 -96 58 -220 160 -267 53 -25 134
-32 179 -14 20 7 26 6 26 -4 0 -8 2 -21 5 -29 5 -11 -20 -15 -142 -20 -81 -4
-204 -13 -273 -22 -161 -19 -315 -19 -448 1 -150 22 -182 43 -198 129 -10 53
-60 105 -103 105 -117 0 -198 -163 -142 -285 42 -93 203 -198 376 -246 106
-30 205 -28 373 5 105 21 161 26 275 26 99 0 159 5 193 15 66 20 74 19 74 -9
0 -31 -16 -43 -78 -57 -58 -12 -82 -36 -82 -84 0 -43 23 -71 83 -101 29 -15
73 -46 100 -71 57 -53 109 -77 151 -69 17 3 57 24 90 46 52 35 65 40 117 40
33 0 59 -3 59 -7 0 -17 -60 -110 -92 -142 -64 -65 -121 -74 -259 -41 -146 34
-225 36 -404 5 -88 -15 -166 -30 -173 -34 -8 -5 15 -18 60 -36 91 -35 229 -97
225 -101 -1 -2 -49 -10 -105 -18 -216 -33 -414 -129 -585 -287 l-69 -62 -96
12 c-242 31 -383 72 -557 159 -137 68 -217 120 -320 206 -44 37 -111 84 -150
104 -46 24 -97 63 -150 117 -154 152 -172 252 -69 374 26 32 107 78 174 100
50 16 175 157 191 213 18 68 6 159 -32 236 -45 93 -157 202 -269 263 -47 26
-86 45 -88 44 -2 -1 26 -50 62 -109 35 -58 70 -129 76 -157 14 -57 8 -125 -15
-169 -14 -27 -18 -28 -42 -19 -15 6 -47 27 -71 47 -132 112 -178 125 -250 72
-23 -16 -43 -30 -44 -30 -2 0 -3 39 -4 88 -1 112 -26 181 -96 257 -85 93 -214
140 -368 133 l-75 -3 -6 -42 c-3 -27 -1 -43 5 -43 26 0 137 -61 176 -97 44
-39 82 -92 94 -129 5 -17 0 -23 -31 -32 -72 -22 -143 -71 -174 -119 -16 -26
-29 -58 -29 -71 0 -19 -4 -23 -18 -17 -9 4 -37 10 -61 13 -25 3 -60 15 -79 28
-161 110 -390 77 -539 -78 l-32 -33 21 -33 c17 -27 25 -32 42 -27 71 23 156
36 201 30 52 -6 145 -33 145 -42 0 -2 -12 -25 -27 -51 -37 -62 -39 -151 -6
-198 l23 -32 -93 -4 c-74 -3 -102 -9 -142 -30 -91 -48 -163 -139 -208 -264
l-26 -71 38 -21 38 -21 44 45 c49 50 143 100 205 110 l42 6 -1 -63 c-1 -120
53 -176 227 -235 39 -14 94 -27 122 -30 29 -4 56 -9 62 -13 5 -3 22 -35 37
-70 75 -181 232 -336 438 -437 44 -22 57 -33 57 -51 0 -47 112 -286 178 -378
48 -69 166 -204 173 -200 3 2 14 40 24 85 10 44 21 80 24 79 3 0 20 -28 36
-62 60 -122 170 -250 283 -325 57 -38 167 -102 176 -102 3 0 7 38 8 85 l3 85
61 -78 c250 -315 469 -488 645 -509 42 -5 52 -11 64 -34 15 -27 14 -29 -28
-62 -107 -88 -599 -347 -753 -398 -130 -42 -275 -52 -314 -21 -57 45 -90 166
-60 221 6 12 12 79 13 154 2 126 1 135 -26 188 -58 120 -204 217 -339 227 -67
5 -238 -22 -238 -37 0 -3 56 -34 124 -69 150 -75 186 -106 186 -156 0 -31 -5
-38 -42 -60 -24 -13 -61 -30 -83 -37 -21 -8 -62 -37 -90 -64 -85 -85 -95 -89
-172 -70 -88 22 -162 13 -253 -31 -73 -35 -188 -116 -196 -139 -6 -14 22 -75
34 -75 4 0 23 5 42 10 56 17 181 29 233 23 44 -5 48 -8 42 -27 -29 -98 -36
-163 -25 -220 6 -33 19 -70 27 -83 9 -13 14 -25 12 -26 -2 -2 -35 -25 -72 -51
-136 -95 -227 -264 -250 -464 -5 -38 -2 -44 16 -51 62 -23 60 -24 97 46 38 73
145 190 198 217 l34 17 54 -59 c48 -54 132 -107 196 -126 16 -5 16 -7 1 -43
-11 -25 -17 -66 -17 -118 0 -68 5 -92 32 -155 18 -42 39 -85 47 -97 14 -20 18
-21 52 -9 l37 13 2 65 c1 38 9 80 19 99 19 37 64 89 77 89 4 0 26 -20 48 -44
81 -88 207 -114 305 -64 46 24 85 61 170 160 l30 35 140 8 c178 9 312 28 353
49 17 9 44 32 59 52 65 84 45 77 162 49 151 -37 264 -55 345 -55 44 -1 111
-11 179 -29 59 -15 107 -26 107 -23 0 2 -38 46 -85 97 -47 51 -85 95 -85 97 0
3 44 -8 98 -24 156 -47 274 -61 442 -54 206 9 200 4 116 87 -41 41 -63 68 -51
65 51 -14 257 -27 325 -21 92 8 194 29 280 56 36 11 70 22 77 24 7 2 -14 30
-47 61 -33 32 -59 59 -57 60 2 2 41 -3 88 -11 98 -17 247 -19 338 -4 68 11
277 75 285 87 2 4 -27 30 -66 57 l-71 50 49 8 c129 20 375 86 397 106 4 4 -43
55 -103 114 -66 64 -106 109 -98 111 7 3 58 17 113 31 340 89 559 167 775 275
133 67 150 76 534 297 565 326 1005 536 1266 605 51 13 122 21 220 24 l145 5
-70 -37 c-273 -144 -447 -355 -626 -763 -46 -105 -55 -132 -41 -129 10 3 79
44 155 91 75 47 137 83 137 79 0 -5 -20 -119 -45 -254 -25 -136 -45 -249 -45
-252 0 -5 66 -36 75 -36 2 0 32 38 66 85 35 47 66 85 69 85 3 0 7 -26 8 -57 3
-60 26 -119 63 -164 16 -20 19 -34 15 -57 -13 -59 -63 -121 -133 -165 -89 -57
-112 -65 -213 -70 -103 -6 -198 -35 -265 -80 -77 -52 -114 -61 -234 -54 -135
8 -177 20 -223 67 -47 47 -48 76 -6 150 92 163 91 159 85 208 -16 157 -145
302 -312 352 -40 12 -305 29 -305 20 0 -3 48 -39 106 -80 92 -64 214 -179 214
-201 0 -4 -26 -7 -58 -6 -81 0 -168 -40 -230 -108 l-48 -52 -49 39 c-28 22
-61 46 -75 53 -36 18 -148 30 -275 29 -137 -1 -191 -20 -290 -101 l-69 -58 97
-11 c124 -15 180 -42 224 -108 34 -49 46 -87 58 -168 l6 -46 -41 -7 c-61 -10
-154 -61 -195 -107 -21 -22 -48 -64 -61 -92 -27 -59 -52 -193 -38 -206 5 -5
25 -11 44 -15 33 -5 36 -3 58 34 27 49 73 85 130 102 l42 12 55 -59 c30 -32
54 -63 55 -69 0 -5 -22 -103 -48 -218 -27 -114 -47 -207 -45 -207 2 0 47 38
98 85 99 89 184 141 193 117 2 -7 18 -32 36 -55 78 -104 255 -126 366 -46 38
28 80 92 80 124 0 22 16 19 136 -26 268 -101 324 -107 518 -54 154 42 307 69
516 90 160 17 385 52 408 64 8 5 -26 28 -90 62 l-103 54 107 7 c123 7 226 27
336 64 80 27 241 92 255 104 4 3 -43 30 -104 60 l-111 53 94 27 c178 50 314
112 495 225 l81 51 -121 11 c-109 8 -210 34 -195 48 3 3 38 15 79 26 116 32
204 84 287 168 40 41 77 82 83 92 9 18 5 19 -58 19 -150 0 -280 42 -361 114
-152 137 -92 346 156 546 l87 69 35 -42 c151 -185 352 -355 541 -460 53 -30
379 -167 396 -167 4 0 -3 86 -13 148 l-5 34 45 -31 c143 -99 335 -162 498
-165 54 0 98 2 98 5 0 3 -32 43 -71 88 l-70 81 88 0 c173 0 445 41 651 99 59
16 124 33 144 36 l37 7 74 -154 c118 -240 139 -333 118 -507 -14 -116 -47
-206 -76 -206 -30 0 -81 75 -90 132 -13 92 -63 228 -97 266 -34 39 -45 42
-160 54 -99 9 -237 -52 -349 -155 l-53 -49 23 -36 c20 -32 25 -35 47 -27 14 6
51 10 83 10 l58 0 6 -75 c4 -50 14 -94 31 -132 19 -39 23 -59 15 -64 -12 -7
-52 -20 -140 -44 -68 -18 -167 -82 -209 -134 -86 -110 -102 -218 -50 -348 46
-115 44 -114 75 -26 29 82 54 126 89 156 24 20 97 60 101 55 1 -2 8 -14 14
-26 22 -42 83 -103 125 -125 28 -14 60 -21 102 -21 l62 -1 -5 -75 c-4 -55 -1
-93 11 -135 19 -64 81 -178 114 -208 19 -17 21 -17 56 0 26 12 35 21 30 32 -4
9 -9 57 -11 106 -4 82 -3 93 19 124 13 19 37 43 54 53 31 18 33 18 68 -3 73
-43 170 -5 284 111 30 31 57 50 66 47 8 -3 18 -36 26 -88 6 -46 18 -95 26
-110 18 -36 88 -95 147 -125 38 -19 194 -84 203 -84 1 0 -22 47 -51 105 -34
66 -60 134 -70 183 -9 42 -19 85 -22 95 -4 14 2 17 37 17 54 0 109 29 155 82
91 104 99 205 27 308 -24 34 -42 70 -42 86 0 15 18 56 41 91 69 110 82 148 83
243 1 114 -15 163 -85 255 -73 97 -74 112 -24 322 47 201 51 245 31 323 -22
86 -39 110 -76 110 -24 0 -36 -9 -60 -42 l-30 -41 0 74 c-1 119 -26 302 -57
404 -27 91 -38 110 -45 83 -2 -7 -23 -51 -47 -98 l-44 -85 -27 105 c-42 168
-91 289 -158 388 l-29 43 -18 -93 c-9 -51 -19 -100 -21 -110 -3 -10 -28 28
-65 99 -48 92 -98 180 -113 200 -1 1 -19 -3 -39 -9 -34 -10 -37 -15 -37 -47 0
-97 -52 -213 -130 -292 -95 -96 -189 -132 -345 -131 -217 0 -442 90 -771 307
l-159 105 145 0 c837 1 1360 282 1360 728 0 101 -15 164 -65 267 -97 200 -277
353 -540 458 -439 175 -940 176 -1895 2 -779 -141 -911 -154 -1053 -98 -106
42 -147 87 -241 270 -59 114 -120 173 -238 231 -97 48 -204 72 -320 72 -46 0
-210 -9 -366 -21 l-282 -22 -123 63 c-67 34 -126 66 -130 70 -13 12 -1 42 32
78 l30 32 98 -1 c54 0 133 -4 176 -7 42 -4 77 -6 77 -5 0 1 -42 30 -92 65
-116 77 -210 109 -320 109 -166 0 -234 -77 -246 -274 -15 -257 109 -507 345
-700 251 -203 542 -325 919 -383 93 -14 175 -19 374 -18 338 0 468 15 1115
129 527 92 849 138 1100 156 482 33 938 -75 1113 -265 110 -119 117 -230 22
-325 -141 -141 -514 -223 -955 -208 -198 7 -362 26 -777 92 -563 89 -737 105
-1258 112 -847 12 -1328 -38 -2339 -242 -151 -30 -280 -55 -286 -55 -8 0 -16
45 -24 123 -10 111 -48 321 -67 372 -6 18 -5 18 8 5 8 -8 38 -43 65 -76 l50
-62 7 107 c16 253 -48 499 -203 781 l-68 125 33 41 c40 49 78 128 99 209 37
145 5 254 -88 299 -29 14 -73 30 -99 37 -40 10 -53 20 -105 86 -64 82 -142
148 -200 169 -36 13 -105 16 -168 7z"/>
</g>
</svg>
